<svg xmlns="http://www.w3.org/2000/svg" viewBox="0 0 174 25" fill="none" stroke-linecap="round" stroke-linejoin="round"><g transform="translate(6 2) rotate(-70) scale(0.3)"><path d="M0 0Q-5 33 1 75" stroke="#af884f" stroke-width=".7"/><path d="M0 12 Q 12 2 14 -7 Q 2 -6 0 12" fill="#af884f" fill-opacity=".6" stroke="#af884f" stroke-width=".4"/><path d="M0 24 Q -12 14 -14 5 Q -2 6 0 24" fill="#af884f" fill-opacity=".6" stroke="#af884f" stroke-width=".4"/><path d="M0 36 Q 12 26 14 17 Q 2 18 0 36" fill="#af884f" fill-opacity=".6" stroke="#af884f" stroke-width=".4"/><path d="M0 48 Q -12 38 -14 29 Q -2 30 0 48" fill="#af884f" fill-opacity=".6" stroke="#af884f" stroke-width=".4"/><path d="M0 60 Q 12 50 14 41 Q 2 42 0 60" fill="#af884f" fill-opacity=".6" stroke="#af884f" stroke-width=".4"/></g><g transform="translate(167 4) rotate(75) scale(0.31)"><path d="M0 0Q-5 33 1 75" stroke="#936d3b" stroke-width=".7"/><path d="M0 12 Q 12 2 14 -7 Q 2 -6 0 12" fill="#936d3b" fill-opacity=".6" stroke="#936d3b" stroke-width=".4"/><path d="M0 24 Q -12 14 -14 5 Q -2 6 0 24" fill="#936d3b" fill-opacity=".6" stroke="#936d3b" stroke-width=".4"/><path d="M0 36 Q 12 26 14 17 Q 2 18 0 36" fill="#936d3b" fill-opacity=".6" stroke="#936d3b" stroke-width=".4"/><path d="M0 48 Q -12 38 -14 29 Q -2 30 0 48" fill="#936d3b" fill-opacity=".6" stroke="#936d3b" stroke-width=".4"/><path d="M0 60 Q 12 50 14 41 Q 2 42 0 60" fill="#936d3b" fill-opacity=".6" stroke="#936d3b" stroke-width=".4"/></g><g transform="translate(29 1) rotate(-58) scale(0.26)"><path d="M0 0Q-5 33 1 75" stroke="#c4a569" stroke-width=".7"/><path d="M0 12 Q 12 2 14 -7 Q 2 -6 0 12" fill="#c4a569" fill-opacity=".6" stroke="#c4a569" stroke-width=".4"/><path d="M0 24 Q -12 14 -14 5 Q -2 6 0 24" fill="#c4a569" fill-opacity=".6" stroke="#c4a569" stroke-width=".4"/><path d="M0 36 Q 12 26 14 17 Q 2 18 0 36" fill="#c4a569" fill-opacity=".6" stroke="#c4a569" stroke-width=".4"/><path d="M0 48 Q -12 38 -14 29 Q -2 30 0 48" fill="#c4a569" fill-opacity=".6" stroke="#c4a569" stroke-width=".4"/><path d="M0 60 Q 12 50 14 41 Q 2 42 0 60" fill="#c4a569" fill-opacity=".6" stroke="#c4a569" stroke-width=".4"/></g><g transform="translate(146 2) rotate(59) scale(0.25)"><path d="M0 0Q-5 33 1 75" stroke="#9c7540" stroke-width=".7"/><path d="M0 12 Q 12 2 14 -7 Q 2 -6 0 12" fill="#9c7540" fill-opacity=".6" stroke="#9c7540" stroke-width=".4"/><path d="M0 24 Q -12 14 -14 5 Q -2 6 0 24" fill="#9c7540" fill-opacity=".6" stroke="#9c7540" stroke-width=".4"/><path d="M0 36 Q 12 26 14 17 Q 2 18 0 36" fill="#9c7540" fill-opacity=".6" stroke="#9c7540" stroke-width=".4"/><path d="M0 48 Q -12 38 -14 29 Q -2 30 0 48" fill="#9c7540" fill-opacity=".6" stroke="#9c7540" stroke-width=".4"/><path d="M0 60 Q 12 50 14 41 Q 2 42 0 60" fill="#9c7540" fill-opacity=".6" stroke="#9c7540" stroke-width=".4"/></g></svg>