<svg xmlns="http://www.w3.org/2000/svg" viewBox="0 0 210 297" fill="none" stroke-linecap="round" stroke-linejoin="round"><path d="M0 0H210V5Q160 15 108 3Q58 15 0 5Z" fill="#6a2b3e" stroke="#ba9460" stroke-width=".45"/><g transform="translate(164 277)"><path d="M0 4Q9 15 18 4Z" fill="#c5a269" stroke="#e8cf92" stroke-width=".5"/><path d="M9 4Q3 -3 10 -9Q16 -3 9 4Z" fill="#ead2a1"/><path d="M9 10V15M4 15H14" stroke="#d4ad6c" stroke-width=".8"/></g><g transform="translate(202 295) rotate(170) scale(0.22)"><path d="M0 0Q-5 33 1 75" stroke="#909265" stroke-width=".7"/><path d="M0 12 Q 12 2 14 -7 Q 2 -6 0 12" fill="#909265" fill-opacity=".6" stroke="#909265" stroke-width=".4"/><path d="M0 24 Q -12 14 -14 5 Q -2 6 0 24" fill="#909265" fill-opacity=".6" stroke="#909265" stroke-width=".4"/><path d="M0 36 Q 12 26 14 17 Q 2 18 0 36" fill="#909265" fill-opacity=".6" stroke="#909265" stroke-width=".4"/><path d="M0 48 Q -12 38 -14 29 Q -2 30 0 48" fill="#909265" fill-opacity=".6" stroke="#909265" stroke-width=".4"/><path d="M0 60 Q 12 50 14 41 Q 2 42 0 60" fill="#909265" fill-opacity=".6" stroke="#909265" stroke-width=".4"/><g transform="translate(8 18)"><ellipse rx="3.2" ry="6.3" transform="rotate(0) translate(0 -4)" fill="#eed6c6" stroke="#b58375" stroke-width=".35"/><ellipse rx="3.2" ry="6.3" transform="rotate(60) translate(0 -4)" fill="#eed6c6" stroke="#b58375" stroke-width=".35"/><ellipse rx="3.2" ry="6.3" transform="rotate(120) translate(0 -4)" fill="#eed6c6" stroke="#b58375" stroke-width=".35"/><ellipse rx="3.2" ry="6.3" transform="rotate(180) translate(0 -4)" fill="#eed6c6" stroke="#b58375" stroke-width=".35"/><ellipse rx="3.2" ry="6.3" transform="rotate(240) translate(0 -4)" fill="#eed6c6" stroke="#b58375" stroke-width=".35"/><ellipse rx="3.2" ry="6.3" transform="rotate(300) translate(0 -4)" fill="#eed6c6" stroke="#b58375" stroke-width=".35"/><circle r="2" fill="#b48b52"/></g><g transform="translate(-9 43)"><ellipse rx="3.2" ry="6.3" transform="rotate(0) translate(0 -4)" fill="#eed6c6" stroke="#b58375" stroke-width=".35"/><ellipse rx="3.2" ry="6.3" transform="rotate(60) translate(0 -4)" fill="#eed6c6" stroke="#b58375" stroke-width=".35"/><ellipse rx="3.2" ry="6.3" transform="rotate(120) translate(0 -4)" fill="#eed6c6" stroke="#b58375" stroke-width=".35"/><ellipse rx="3.2" ry="6.3" transform="rotate(180) translate(0 -4)" fill="#eed6c6" stroke="#b58375" stroke-width=".35"/><ellipse rx="3.2" ry="6.3" transform="rotate(240) translate(0 -4)" fill="#eed6c6" stroke="#b58375" stroke-width=".35"/><ellipse rx="3.2" ry="6.3" transform="rotate(300) translate(0 -4)" fill="#eed6c6" stroke="#b58375" stroke-width=".35"/><circle r="2" fill="#b48b52"/></g><g transform="translate(7 61)"><ellipse rx="3.2" ry="6.3" transform="rotate(0) translate(0 -4)" fill="#eed6c6" stroke="#b58375" stroke-width=".35"/><ellipse rx="3.2" ry="6.3" transform="rotate(60) translate(0 -4)" fill="#eed6c6" stroke="#b58375" stroke-width=".35"/><ellipse rx="3.2" ry="6.3" transform="rotate(120) translate(0 -4)" fill="#eed6c6" stroke="#b58375" stroke-width=".35"/><ellipse rx="3.2" ry="6.3" transform="rotate(180) translate(0 -4)" fill="#eed6c6" stroke="#b58375" stroke-width=".35"/><ellipse rx="3.2" ry="6.3" transform="rotate(240) translate(0 -4)" fill="#eed6c6" stroke="#b58375" stroke-width=".35"/><ellipse rx="3.2" ry="6.3" transform="rotate(300) translate(0 -4)" fill="#eed6c6" stroke="#b58375" stroke-width=".35"/><circle r="2" fill="#b48b52"/></g></g></svg>